<?xml version="1.0" encoding="UTF-8"?>
<svg version="1.1" xmlns="http://www.w3.org/2000/svg" width="1024" height="1024">
<path d="M0 0 C337.92 0 675.84 0 1024 0 C1024 337.92 1024 675.84 1024 1024 C686.08 1024 348.16 1024 0 1024 C0 686.08 0 348.16 0 0 Z " fill="#FBFBFB" transform="translate(0,0)"/>
<path d="M0 0 C1.81694066 -0.0013583 3.63388105 -0.00314063 5.45082092 -0.00531006 C10.34808118 -0.00983634 15.24532016 -0.00811396 20.14258075 -0.00493097 C25.3020907 -0.0023789 30.46159897 -0.0047531 35.62110901 -0.00631714 C44.29168012 -0.00813204 52.96224269 -0.00575191 61.6328125 -0.00097656 C71.59829918 0.00444926 81.56376534 0.00271289 91.52925152 -0.00280297 C100.13449477 -0.00737207 108.73973193 -0.00796576 117.34497601 -0.0053643 C122.46235779 -0.00382026 127.57973 -0.00355516 132.69711113 -0.00690079 C173.43385542 -0.0300142 173.43385542 -0.0300142 192.51782227 1.12939453 C192.61168421 19.70685648 192.68200496 38.28426963 192.72507095 56.86192036 C192.74560774 65.48981514 192.77355609 74.11756173 192.81958008 82.74536133 C192.8597224 90.27422022 192.88531944 97.80297168 192.89417624 105.33193463 C192.89934517 109.31046347 192.91130306 113.28868523 192.94074249 117.26711464 C193.19017556 152.38437076 187.30284103 181.1702918 163.51782227 208.12939453 C162.7637207 208.99306641 162.00961914 209.85673828 161.23266602 210.74658203 C159.0252346 213.23798833 156.78400824 215.69140385 154.51782227 218.12939453 C153.90680664 218.79455078 153.29579102 219.45970703 152.66625977 220.14501953 C146.55552923 226.54178427 139.54955196 231.80017924 132.51782227 237.12939453 C131.90455078 237.59812988 131.2912793 238.06686523 130.65942383 238.54980469 C122.34356917 244.88642456 113.85559354 250.68006275 104.76391602 255.84619141 C103.10690471 256.79284917 101.45686339 257.75173188 99.81079102 258.71728516 C96.87103161 260.4390318 93.91547753 262.13049566 90.95532227 263.81689453 C90.01487061 264.37111084 89.07441895 264.92532715 88.10546875 265.49633789 C81.41935377 269.23688483 81.41935377 269.23688483 77.47094727 268.76611328 C76.49641602 268.22599609 75.52188477 267.68587891 74.51782227 267.12939453 C73.01418058 266.40228467 71.51024355 265.67578543 70.00610352 264.94970703 C49.16841897 254.21459111 29.98575763 242.0898332 12.73657227 226.15673828 C10.7539065 224.34511234 8.71695985 222.64625759 6.64282227 220.94189453 C-15.85804193 201.21386411 -30.83170901 171.78188628 -33.48217773 142.12939453 C-33.94813372 132.64832237 -33.826139 123.15117827 -33.74807739 113.66194153 C-33.72656002 110.74208349 -33.71672575 107.82223009 -33.70678711 104.90231323 C-33.58648879 70.30949767 -33.04774056 35.71733469 -32.48217773 1.12939453 C-21.63151095 0.16608008 -10.88391104 -0.01381133 0 0 Z " fill="#003E6E" transform="translate(113.482177734375,374.87060546875)"/>
<path d="M0 0 C2.54868214 -0.01304231 5.09729651 -0.0225386 7.64599609 -0.0300293 C8.36166245 -0.0340551 9.0773288 -0.0380809 9.81468201 -0.0422287 C15.49172049 -0.05472156 21.00856462 0.3302458 26.625 1.1875 C27.50889404 1.31987061 28.39278809 1.45224121 29.3034668 1.58862305 C40.31489516 3.37195977 50.60318898 6.31135376 59 14 C59.52464844 14.46921875 60.04929688 14.9384375 60.58984375 15.421875 C62 16.75 62 16.75 64 19 C64 19.66 64 20.32 64 21 C64.66 21 65.32 21 66 21 C66.226875 20.443125 66.45375 19.88625 66.6875 19.3125 C71.92527667 10.08403634 82.62241847 5.56623921 92.38671875 2.8125 C104.27090935 0.14016309 115.75660169 0 128 0 C128 32.34 128 64.68 128 98 C118.1 98.495 118.1 98.495 108 99 C93.3641086 100.79739017 80.30936712 103.75341769 70 115 C66.73201451 117.178657 65.79094962 117.72208564 62 117 C60.77244393 115.57338078 59.55272433 114.13798804 58.40234375 112.6484375 C46.98650167 99.22925823 23.35266664 99.88123956 7.28125 98.578125 C6.09595703 98.48950195 4.91066406 98.40087891 3.68945312 98.30957031 C1 98 1 98 0 97 C-0.09529612 93.98649762 -0.12551904 90.99595894 -0.11352539 87.98217773 C-0.11367142 87.03593536 -0.11381744 86.08969299 -0.1139679 85.11477661 C-0.11326836 81.97102608 -0.10547409 78.82733399 -0.09765625 75.68359375 C-0.09579221 73.51025932 -0.09436824 71.33692448 -0.09336853 69.16358948 C-0.08954221 63.43098805 -0.07971097 57.69841177 -0.06866455 51.96582031 C-0.05845287 46.12109721 -0.05387143 40.27637007 -0.04882812 34.43164062 C-0.0380888 22.954416 -0.02101102 11.47721009 0 0 Z " fill="#C5C7CA" transform="translate(129,425)"/>
<path d="M0 0 C40.2704718 0 40.2704718 0 49.28125 8.80078125 C57.51464346 19.33578243 58.87240291 30.13367263 58 43 C56.61809221 51.97068958 52.20324413 58.59538816 45.25 64.3125 C30.87805843 73.40063952 17.56899482 70 0 70 C0 46.9 0 23.8 0 0 Z " fill="#033E6F" transform="translate(358,414)"/>
<path d="M0 0 C8.18278149 0 14.145337 0.03947556 21.6875 2.1875 C22.50621582 2.41381104 23.32493164 2.64012207 24.16845703 2.87329102 C33.8682554 5.66970782 40.65617697 9.05478269 46.11471558 17.7822876 C47.29973714 20.75086691 47.23943315 23.2262465 47.22705078 26.42089844 C47.22689972 27.72194519 47.22674866 29.02299194 47.22659302 30.36346436 C47.21638046 31.77876947 47.20594848 33.19407301 47.1953125 34.609375 C47.19158071 36.06097214 47.18873452 37.5125718 47.18673706 38.96417236 C47.17911364 42.77824907 47.15947635 46.59217262 47.1373291 50.40618896 C47.11684278 54.30071949 47.10772939 58.19527484 47.09765625 62.08984375 C47.07622915 69.7266322 47.04210892 77.36329461 47 85 C42.24658203 83.11621094 42.24658203 83.11621094 40.02734375 82.0703125 C34.2325823 79.44913068 28.3286884 78.06678816 22.125 76.8125 C21.311521 76.64572754 20.49804199 76.47895508 19.65991211 76.30712891 C13.04566324 75.03210877 6.81027509 74.56752292 0 74 C0 49.58 0 25.16 0 0 Z " fill="#003E6F" transform="translate(141,438)"/>
<path d="M0 0 C39.775 0 39.775 0 49 9 C52.09294734 13.86793774 51.60215132 19.44682673 51 25 C48.83790609 29.56442047 46.49407656 31.75296172 42 34 C42.55429687 34.45890625 43.10859375 34.9178125 43.6796875 35.390625 C44.40414062 36.00421875 45.12859375 36.6178125 45.875 37.25 C46.59429687 37.85328125 47.31359375 38.4565625 48.0546875 39.078125 C51.56788837 42.54899815 52.30593261 45.42943581 52.375 50.3125 C52.24255853 56.93457365 50.48032067 60.51967933 45.75 65.25 C31.33665365 74.42212949 18.45165668 70 0 70 C0 46.9 0 23.8 0 0 Z " fill="#043C6E" transform="translate(428,414)"/>
<path d="M0 0 C0 24.42 0 48.84 0 74 C-9.9 74.99 -9.9 74.99 -20 76 C-28.25385482 77.82718924 -35.27306614 79.53926772 -42.36328125 84.14453125 C-42.90339844 84.42683594 -43.44351563 84.70914063 -44 85 C-44.66 84.67 -45.32 84.34 -46 84 C-45.96187078 75.64564525 -45.90240528 67.29182492 -45.81609726 58.93784237 C-45.77667757 55.05823575 -45.74446243 51.17885422 -45.72900391 47.29907227 C-45.7138005 43.55107342 -45.67929114 39.8036936 -45.63169098 36.05597115 C-45.61691484 34.62998413 -45.60896115 33.2039087 -45.60811615 31.77784538 C-45.59162056 17.89153625 -45.59162056 17.89153625 -41 12 C-30.36036608 1.96293435 -13.92884818 0 0 0 Z " fill="#013E6F" transform="translate(246,438)"/>
<path d="M0 0 C5.28 0 10.56 0 16 0 C16 23.1 16 46.2 16 70 C11.71 70 7.42 70 3 70 C2.67 54.16 2.34 38.32 2 22 C0.35 25.465 -1.3 28.93 -3 32.5 C-7.56007622 42.0549963 -12.21597067 51.55531172 -17 61 C-20.63 61 -24.26 61 -28 61 C-28.6290625 59.6696875 -29.258125 58.339375 -29.90625 56.96875 C-30.77074566 55.14579175 -31.63533411 53.32287751 -32.5 51.5 C-32.90992188 50.63246094 -33.31984375 49.76492188 -33.7421875 48.87109375 C-37.70981491 40.51502996 -41.85998272 32.28003456 -46 24 C-46.33 39.18 -46.66 54.36 -47 70 C-50.96 70 -54.92 70 -59 70 C-59 47.23 -59 24.46 -59 1 C-54.05 1 -49.1 1 -44 1 C-38.76167254 10.6359357 -33.76437158 20.37034662 -29 30.25 C-28.27913208 31.73125366 -28.27913208 31.73125366 -27.54370117 33.24243164 C-27.09615479 34.17821045 -26.6486084 35.11398926 -26.1875 36.078125 C-25.78917969 36.90731445 -25.39085937 37.73650391 -24.98046875 38.59082031 C-23.97740747 41.05551371 -23.43412661 43.38006924 -23 46 C-22.34 46 -21.68 46 -21 46 C-20.90106445 45.31244629 -20.80212891 44.62489258 -20.70019531 43.91650391 C-19.85646394 40.40213327 -18.43809798 37.55711709 -16.796875 34.3359375 C-16.47720764 33.7032193 -16.15754028 33.0705011 -15.82818604 32.41860962 C-14.80780122 30.40113346 -13.77939175 28.3878932 -12.75 26.375 C-11.40831754 23.73856503 -10.07020743 21.10034105 -8.734375 18.4609375 C-8.41182739 17.82452332 -8.08927979 17.18810913 -7.75695801 16.53240967 C-5.01317053 11.08993855 -2.47383463 5.57092217 0 0 Z " fill="#023D6E" transform="translate(770,414)"/>
<path d="M0 0 C37.77777778 0 37.77777778 0 45.9375 6.25 C50.60295977 12.47061302 52.71170423 17.40498482 52.3828125 25.3203125 C51.56802395 31.02383235 49.21848015 35.17807757 44.9375 39 C42 41 42 41 39 41 C39.41362793 41.73637695 39.82725586 42.47275391 40.25341797 43.23144531 C41.79354824 45.97435635 43.33284379 48.71773363 44.87158203 51.46142578 C45.53661429 52.64683364 46.20197499 53.8320573 46.86767578 55.01708984 C47.82671909 56.72444496 48.78446784 58.43252705 49.7421875 60.140625 C50.3182373 61.16704102 50.89428711 62.19345703 51.48779297 63.25097656 C52.71012475 65.47303919 53.86583447 67.73166893 55 70 C50.05 70 45.1 70 40 70 C39.22398437 68.20691406 38.44796875 66.41382813 37.6484375 64.56640625 C36.56018683 62.2304199 35.46887928 59.89585592 34.375 57.5625 C33.87226562 56.37849609 33.36953125 55.19449219 32.8515625 53.97460938 C31.16221853 50.46519839 29.72912003 47.78918088 27 45 C22.0144891 43.59778262 18.26576835 43.77036972 13 44 C13 52.58 13 61.16 13 70 C8.71 70 4.42 70 0 70 C0 46.9 0 23.8 0 0 Z " fill="#023D6E" transform="translate(644,414)"/>
<path d="M0 0 C14 0 14 0 16.88671875 2.26171875 C17.48097656 3.39222656 18.07523438 4.52273438 18.6875 5.6875 C19.45755109 7.04303876 20.23281396 8.39562297 21.01171875 9.74609375 C21.45435059 10.54515137 21.89698242 11.34420898 22.35302734 12.16748047 C25.55954635 17.6821608 29.16194683 22.9506158 32.68667603 28.26528931 C34.804136 31.46521981 36.90151428 34.67823322 39 37.890625 C40.99034217 40.93389372 42.98292361 43.97438542 45 47 C45.33 31.49 45.66 15.98 46 0 C49.96 0 53.92 0 58 0 C58 22.77 58 45.54 58 69 C53.71 69 49.42 69 45 69 C42.05973665 65.83942874 40.16149307 63.49126313 38.09246826 59.86065674 C36.43294593 57.03421178 34.58527189 54.34060199 32.75552368 51.62240601 C30.68593663 48.54062529 28.65633555 45.43333019 26.62475586 42.32641602 C25.04385472 39.90898866 23.45877111 37.49434389 21.87304688 35.08007812 C20.86434313 33.54182415 19.85587079 32.0034184 18.84765625 30.46484375 C18.37481705 29.74409164 17.90197784 29.02333954 17.41481018 28.28074646 C14.1167035 23.23340699 14.1167035 23.23340699 13 21 C12.67 36.84 12.34 52.68 12 69 C8.04 69 4.08 69 0 69 C0 46.23 0 23.46 0 0 Z " fill="#01396B" transform="translate(873,415)"/>
<path d="M0 0 C1.48831242 0.00667405 2.97660807 0.01863442 4.46484375 0.03515625 C5.22345703 0.03966797 5.98207031 0.04417969 6.76367188 0.04882812 C8.64326246 0.06064945 10.52281274 0.07858547 12.40234375 0.09765625 C18.69600665 15.68141346 24.85447631 31.31629176 30.96484375 46.97265625 C31.32553955 47.89617889 31.68623535 48.81970154 32.05786133 49.77120972 C33.09159397 52.41872366 34.12416496 55.06668714 35.15625 57.71484375 C35.62593956 58.91801491 35.62593956 58.91801491 36.1051178 60.14549255 C37.2607315 63.11460535 38.39463951 66.07454353 39.40234375 69.09765625 C34.45234375 69.09765625 29.50234375 69.09765625 24.40234375 69.09765625 C19.40234375 56.47265625 19.40234375 56.47265625 19.40234375 53.09765625 C9.50234375 53.09765625 -0.39765625 53.09765625 -10.59765625 53.09765625 C-10.92765625 54.74765625 -11.25765625 56.39765625 -11.59765625 58.09765625 C-12.84183026 61.80019818 -14.23064719 65.43759972 -15.59765625 69.09765625 C-20.21765625 69.09765625 -24.83765625 69.09765625 -29.59765625 69.09765625 C-28.86780979 65.44842393 -28.12246236 62.55630042 -26.81933594 59.14648438 C-26.45515564 58.18778442 -26.09097534 57.22908447 -25.71575928 56.24133301 C-25.32100403 55.21423218 -24.92624878 54.18713135 -24.51953125 53.12890625 C-24.11107971 52.0570105 -23.70262817 50.98511475 -23.28179932 49.8807373 C-21.97410337 46.45162366 -20.66094479 43.0246314 -19.34765625 39.59765625 C-18.47880961 37.32175086 -17.61031627 35.04571056 -16.7421875 32.76953125 C-14.71244513 27.45005936 -12.67618849 22.13311159 -10.63793945 16.81689453 C-9.72346039 14.42650078 -8.81411234 12.03427623 -7.90820312 9.640625 C-7.2362793 7.87138672 -7.2362793 7.87138672 -6.55078125 6.06640625 C-6.18629883 5.10154297 -5.82181641 4.13667969 -5.44628906 3.14257812 C-4.03095165 -0.26791272 -4.04505401 0.1098006 0 0 Z " fill="#043D6E" transform="translate(824.59765625,414.90234375)"/>
<path d="M0 0 C7.00419468 4.23170095 11.75910069 8.97011079 14 17 C12.4176994 17.33820166 10.83410625 17.67035939 9.25 18 C8.36828125 18.185625 7.4865625 18.37125 6.578125 18.5625 C4 19 4 19 0 19 C-1.203125 17.57421875 -1.203125 17.57421875 -2.25 15.6875 C-4.63490299 12.09560343 -6.71592993 10.68039676 -10.8203125 9.43359375 C-15.94650008 8.41386826 -20.29273429 8.40902341 -25.25 10.125 C-30.077118 13.41621682 -33.31021105 17.41472412 -35 23 C-35.33663754 26.27402348 -35.37015921 29.52318595 -35.375 32.8125 C-35.39949219 33.67681641 -35.42398438 34.54113281 -35.44921875 35.43164062 C-35.47648115 41.45208779 -34.41778941 45.98196085 -31 51 C-25.23010793 56.48139746 -20.71233989 57.40737199 -12.9140625 57.24609375 C-9.23509843 56.93540375 -6.96387926 56.22290945 -4 54 C-0.30730846 49.5892851 0.86043346 45.50790493 2 40 C-2.62 40 -7.24 40 -12 40 C-12 36.7 -12 33.4 -12 30 C-3.42 30 5.16 30 14 30 C14.56007898 52.21646632 14.56007898 52.21646632 5.2578125 62.05078125 C-2.86016312 69.05920657 -12.72828875 69.63976056 -23 69 C-31.97820393 67.51828243 -38.57162924 63.23214011 -44.3125 56.25 C-51.02239336 46.46854782 -51.34725428 34.49540336 -50 23 C-47.56762859 13.56079738 -43.32341291 6.91925389 -35.0625 1.75 C-24.43210094 -4.51704984 -11.29429558 -5.25498475 0 0 Z " fill="#033C6D" transform="translate(561,416)"/>
<path d="M0 0 C14.85 0 29.7 0 45 0 C45 2.97 45 5.94 45 9 C34.44 9 23.88 9 13 9 C13 15.6 13 22.2 13 29 C21.91 29 30.82 29 40 29 C40 32.3 40 35.6 40 39 C31.09 39 22.18 39 13 39 C13 45.27 13 51.54 13 58 C23.89 58 34.78 58 46 58 C46 61.63 46 65.26 46 69 C30.82 69 15.64 69 0 69 C0 46.23 0 23.46 0 0 Z " fill="#053C6E" transform="translate(587,415)"/>
<path d="M0 0 C6.4659375 -0.0928125 6.4659375 -0.0928125 13.0625 -0.1875 C14.40836182 -0.21481201 15.75422363 -0.24212402 17.14086914 -0.27026367 C23.51256179 -0.31451484 28.45273518 -0.28466736 34 3 C38.09550962 7.31106276 39.3696675 10.82154767 39.28125 16.80078125 C38.79704931 20.58696164 37.42379296 24.0414447 35 27 C33.34917434 27.70498004 31.6829408 28.37555427 30 29 C30.33322266 29.60062256 30.66644531 30.20124512 31.00976562 30.82006836 C32.50868755 33.52467905 34.00438406 36.23105986 35.5 38.9375 C36.02464844 39.88302734 36.54929687 40.82855469 37.08984375 41.80273438 C37.58613281 42.70185547 38.08242188 43.60097656 38.59375 44.52734375 C39.05458984 45.35999756 39.51542969 46.19265137 39.99023438 47.05053711 C41 49 41 49 41 50 C37.04 50 33.08 50 29 50 C27.6589995 47.5664433 26.32705144 45.12864699 25 42.6875 C24.6184375 41.99720703 24.236875 41.30691406 23.84375 40.59570312 C21 35.33984375 21 35.33984375 21 32 C17.37 32 13.74 32 10 32 C10 37.94 10 43.88 10 50 C6.7 50 3.4 50 0 50 C0 33.5 0 17 0 0 Z " fill="#043D6F" transform="translate(410,515)"/>
<path d="M0 0 C12 0 12 0 14.64404297 1.96850586 C15.17143066 2.87479736 15.69881836 3.78108887 16.2421875 4.71484375 C16.85320313 5.71193359 17.46421875 6.70902344 18.09375 7.73632812 C18.6815625 8.79271484 19.269375 9.84910156 19.875 10.9375 C20.48601563 11.95908203 21.09703125 12.98066406 21.7265625 14.03320312 C22.88233222 15.96565997 24.02009781 17.9091013 25.13232422 19.86694336 C27.6004868 24.00732642 30.32621856 27.98932784 33 32 C33.33 21.44 33.66 10.88 34 0 C37.3 0 40.6 0 44 0 C44 16.5 44 33 44 50 C33 50 33 50 30.59765625 48.26171875 C30.09105469 47.41222656 29.58445312 46.56273437 29.0625 45.6875 C28.44246094 44.70136719 27.82242188 43.71523438 27.18359375 42.69921875 C26.84827637 42.1273584 26.51295898 41.55549805 26.16748047 40.96630859 C24.79766114 38.6592143 23.35789311 36.4035264 21.91015625 34.14453125 C19.31168218 30.08405349 16.74593922 26.0047828 14.20166016 21.91015625 C13.16122439 20.25628192 12.08384031 18.62576046 11 17 C10.67 27.89 10.34 38.78 10 50 C6.7 50 3.4 50 0 50 C0 33.5 0 17 0 0 Z " fill="#013D6F" transform="translate(548,515)"/>
<path d="M0 0 C3.96 0 7.92 0 12 0 C14.90519242 3.08595994 16.38688567 5.10645393 18.25 8.75 C19.16949701 10.39195894 20.09141512 12.03256417 21.015625 13.671875 C22.00046875 15.43015625 22.9853125 17.1884375 24 19 C27.96 24.94 27.96 24.94 32 31 C32.33 20.77 32.66 10.54 33 0 C36.3 0 39.6 0 43 0 C43 16.5 43 33 43 50 C39.37 50 35.74 50 32 50 C29.52827041 47.50476211 28.48207285 46.08399822 27 43.0625 C26.19272062 41.60401746 25.382721 40.14703799 24.5703125 38.69140625 C23.95397949 37.54502686 23.95397949 37.54502686 23.32519531 36.37548828 C21.04456146 32.28732185 18.44740179 28.40838122 15.875 24.5 C13.461875 20.7875 13.461875 20.7875 11 17 C10.67 27.89 10.34 38.78 10 50 C6.7 50 3.4 50 0 50 C0 33.5 0 17 0 0 Z " fill="#033D6E" transform="translate(635,515)"/>
<path d="M0 0 C3.96 0 7.92 0 12 0 C15.06852055 3.24659013 16.75683779 5.50260029 18.8125 9.3125 C19.31974609 10.17423828 19.82699219 11.03597656 20.34960938 11.92382812 C21.92438466 14.60154337 23.461892 17.30105578 25 20 C27.31 23.63 29.62 27.26 32 31 C32.33 20.77 32.66 10.54 33 0 C36.3 0 39.6 0 43 0 C43 15.84 43 31.68 43 48 C38.71 48 34.42 48 30 48 C29.34 46.35 28.68 44.7 28 43 C27.32729208 41.84837487 26.61607594 40.71813098 25.86328125 39.6171875 C25.45013672 39.00617187 25.03699219 38.39515625 24.61132812 37.765625 C24.18271484 37.14171875 23.75410156 36.5178125 23.3125 35.875 C19.07667922 29.65801581 15.04344065 23.35397817 11 17 C10.67 27.23 10.34 37.46 10 48 C6.7 48 3.4 48 0 48 C0 32.16 0 16.32 0 0 Z " fill="#023B6D" transform="translate(388,591)"/>
<path d="M0 0 C18 0 18 0 24 3 C29.55339496 8.87073181 31.52667556 14.42537106 31.375 22.3125 C31.36557373 23.0643457 31.35614746 23.81619141 31.34643555 24.59082031 C31.1530451 31.71313619 30.25200974 37.27388294 25.625 42.875 C16.3779843 50.36067938 14.9191104 48 0 48 C0 32.16 0 16.32 0 0 Z " fill="#FAFBFB" transform="translate(371,425)"/>
<path d="M0 0 C4.29 0 8.58 0 13 0 C18.07247394 12.63353112 23.13173347 25.27241945 28.125 37.9375 C28.51486084 38.91920166 28.90472168 39.90090332 29.30639648 40.91235352 C29.66161377 41.81655029 30.01683105 42.72074707 30.3828125 43.65234375 C30.69621582 44.44632568 31.00961914 45.24030762 31.33251953 46.05834961 C32 48 32 48 32 50 C28.37 50 24.74 50 21 50 C17 41.25 17 41.25 17 39 C10.07 39 3.14 39 -4 39 C-4.99 42.3 -5.98 45.6 -7 49 C-8 50 -8 50 -10.28515625 50.09765625 C-11.65994141 50.08025391 -11.65994141 50.08025391 -13.0625 50.0625 C-13.98160156 50.05347656 -14.90070313 50.04445313 -15.84765625 50.03515625 C-16.55792969 50.02355469 -17.26820313 50.01195312 -18 50 C-17.5541555 45.63072389 -16.72366646 42.05585069 -14.8828125 38.0703125 C-13.7815524 35.48771139 -12.92977655 32.85761914 -12.0625 30.1875 C-8.67309933 19.86581568 -4.30715785 9.96389183 0 0 Z " fill="#063E6F" transform="translate(478,515)"/>
<path d="M0 0 C3.59597667 2.37321312 6.35037668 5.47373731 8.13671875 9.41015625 C7.80671875 10.40015625 7.47671875 11.39015625 7.13671875 12.41015625 C3.77866115 13.06872677 0.56373928 13.55185541 -2.86328125 13.41015625 C-5.86328125 11.03515625 -5.86328125 11.03515625 -7.86328125 8.41015625 C-11.58511595 6.5492389 -15.81047506 6.84212515 -19.86328125 7.41015625 C-23.74534147 10.24082516 -25.34985664 12.9356835 -26.86328125 17.41015625 C-27.76779418 24.44642547 -27.18600563 30.62762659 -22.86328125 36.41015625 C-19.37853483 39.50770862 -16.28910936 39.823351 -11.79296875 39.63671875 C-9.18246602 39.33022248 -7.15779461 38.6923843 -4.86328125 37.41015625 C-2.91818125 34.49250625 -2.41051808 32.7847834 -1.86328125 29.41015625 C-4.83328125 29.41015625 -7.80328125 29.41015625 -10.86328125 29.41015625 C-10.86328125 26.77015625 -10.86328125 24.13015625 -10.86328125 21.41015625 C-4.59328125 21.41015625 1.67671875 21.41015625 8.13671875 21.41015625 C8.7577145 36.31405436 8.7577145 36.31405436 4.13671875 42.41015625 C-1.14858621 47.69546121 -6.9479294 48.70999798 -14.23828125 48.78515625 C-21.5357829 48.66365035 -26.31947293 47.84247397 -31.6015625 42.7265625 C-33.74096903 40.35228079 -35.51064008 38.14195296 -36.90234375 35.25390625 C-37.72558623 33.23464051 -37.72558623 33.23464051 -39.86328125 32.41015625 C-40.63535108 14.7383358 -40.63535108 14.7383358 -35.86328125 8.41015625 C-35.20972656 7.47623047 -35.20972656 7.47623047 -34.54296875 6.5234375 C-26.16870659 -4.3905599 -12.21906736 -5.63490875 0 0 Z " fill="#073E6F" transform="translate(730.86328125,516.58984375)"/>
<path d="M0 0 C3.22498175 1.92953453 5.48368809 4.05614682 7.4375 7.3125 C7.4375 8.6325 7.4375 9.9525 7.4375 11.3125 C4.4675 11.9725 1.4975 12.6325 -1.5625 13.3125 C-1.8925 12.3225 -2.2225 11.3325 -2.5625 10.3125 C-7.2832663 8.79225323 -11.57223497 7.83723666 -16.5625 8.3125 C-18.82599674 10.12935373 -18.82599674 10.12935373 -18.6875 12.75 C-17.7365928 15.68411065 -17.7365928 15.68411065 -14.1875 16.875 C-12.65076074 17.3697416 -11.10842232 17.84724631 -9.5625 18.3125 C-2.94714017 20.45221384 2.51949419 22.26507298 7.4375 27.3125 C9.11770832 32.35312497 8.93263492 36.04237129 7 41 C4.16322373 45.37336341 0.40092244 47.08785295 -4.5625 48.3125 C-12.17396371 49.30979932 -18.15817286 48.83137169 -24.7578125 44.796875 C-26.78116974 43.13264177 -28.17544461 41.53523473 -29.5625 39.3125 C-29.5625 38.3225 -29.5625 37.3325 -29.5625 36.3125 C-25.78062119 34.47558743 -23.61681692 34.15412374 -19.5625 35.3125 C-19.5625 35.9725 -19.5625 36.6325 -19.5625 37.3125 C-16.6548543 38.14041734 -14.02159481 38.47443659 -11 38.5 C-9.85337891 38.52126953 -9.85337891 38.52126953 -8.68359375 38.54296875 C-6.26096497 38.4448375 -6.26096497 38.4448375 -3.5625 36.3125 C-2.89564062 33.85577108 -2.89564062 33.85577108 -3.5625 31.3125 C-7.16341891 28.70265969 -10.73468242 27.57290845 -15 26.4375 C-20.40935384 24.84219904 -23.64726494 23.33076756 -27.5625 19.3125 C-28.18125 18.85875 -28.8 18.405 -29.4375 17.9375 C-31.38372539 15.12628555 -30.90356823 12.60949293 -30.5625 9.3125 C-28.42142673 4.46691313 -25.04355288 1.50391782 -20.29296875 -0.77734375 C-13.92902084 -2.89865972 -6.1274676 -2.84489567 0 0 Z " fill="#063F70" transform="translate(474.5625,591.6875)"/>
<path d="M0 0 C3.3 0 6.6 0 10 0 C10.00410889 1.00377686 10.00821777 2.00755371 10.01245117 3.04174805 C10.03428312 6.77891844 10.08861294 10.51504201 10.15258789 14.25170898 C10.17573286 15.86651549 10.19015543 17.48147221 10.19555664 19.09643555 C10.20487274 21.42331148 10.24591368 23.74783676 10.29296875 26.07421875 C10.2890361 26.79212082 10.28510345 27.51002289 10.28105164 28.24967957 C10.39479075 32.1889715 10.8887877 33.86398892 13.4152832 36.95385742 C15.92413149 38.93994012 16.87652672 39.68797325 20 39.625 C20.639375 39.63789062 21.27875 39.65078125 21.9375 39.6640625 C25.28213673 38.58719083 26.79549442 36.69607935 29 34 C29.50722152 31.16267681 29.72254511 28.90626219 29.70703125 26.07421875 C29.72215256 25.32662796 29.73727386 24.57903717 29.75285339 23.80879211 C29.79564081 21.43471913 29.8045588 19.06191969 29.8125 16.6875 C29.83565158 15.07223198 29.86101831 13.45699409 29.88867188 11.84179688 C29.95143457 7.89441914 29.98383984 3.94783246 30 0 C33.3 0 36.6 0 40 0 C40.07453636 4.85633035 40.12878329 9.71232268 40.16479492 14.5690918 C40.17981806 16.21889044 40.2002426 17.86864958 40.22631836 19.51831055 C40.26298899 21.89902536 40.27979103 24.27920908 40.29296875 26.66015625 C40.30845261 27.38960953 40.32393646 28.11906281 40.33988953 28.87062073 C40.34176631 34.67007891 39.2331849 39.50320975 35.24609375 43.9609375 C34.64925781 44.42757812 34.05242188 44.89421875 33.4375 45.375 C32.83808594 45.85710938 32.23867188 46.33921875 31.62109375 46.8359375 C26.5595519 50.47049045 19.96691576 49.36041773 14 49 C7.53774007 47.70754801 4.39375143 43.5651617 0.87548828 38.32519531 C-0.43452735 34.84594578 -0.24464568 31.39908424 -0.1953125 27.734375 C-0.1924826 26.94097717 -0.18965271 26.14757935 -0.18673706 25.33013916 C-0.17556779 22.80327083 -0.15046944 20.27676068 -0.125 17.75 C-0.11496598 16.0338593 -0.10584087 14.31771302 -0.09765625 12.6015625 C-0.07563914 8.40090426 -0.04113187 4.2005128 0 0 Z " fill="#043D6F" transform="translate(620,591)"/>
<path d="M0 0 C10.56 0 21.12 0 32 0 C32 2.64 32 5.28 32 8 C24.74 8 17.48 8 10 8 C10 11.96 10 15.92 10 20 C16.27 20 22.54 20 29 20 C29 22.64 29 25.28 29 28 C22.73 28 16.46 28 10 28 C10 31.96 10 35.92 10 40 C17.26 40 24.52 40 32 40 C32 42.64 32 45.28 32 48 C21.44 48 10.88 48 0 48 C0 32.16 0 16.32 0 0 Z " fill="#02386B" transform="translate(725,591)"/>
<path d="M0 0 C13.53 0 27.06 0 41 0 C41 2.97 41 5.94 41 9 C36.05 9 31.1 9 26 9 C26 22.53 26 36.06 26 50 C22.37 50 18.74 50 15 50 C15 36.47 15 22.94 15 9 C10.05 9 5.1 9 0 9 C0 6.03 0 3.06 0 0 Z " fill="#0A4372" transform="translate(357,515)"/>
<path d="M0 0 C13.2 0 26.4 0 40 0 C40 2.97 40 5.94 40 9 C35.05 9 30.1 9 25 9 C25.00785522 10.748573 25.00785522 10.748573 25.01586914 12.5324707 C25.03395871 16.85424025 25.04544653 21.17600644 25.05493164 25.49780273 C25.05996279 27.36890221 25.06678835 29.23999775 25.07543945 31.11108398 C25.08755829 33.79932628 25.09324047 36.48751664 25.09765625 39.17578125 C25.10281754 40.01337479 25.10797882 40.85096832 25.11329651 41.71394348 C25.11362064 45.06375742 25.06684515 47.79946456 24 51 C20.7 51 17.4 51 14 51 C14 37.14 14 23.28 14 9 C9.38 9 4.76 9 0 9 C0 6.03 0 3.06 0 0 Z " fill="#003A6C" transform="translate(568,591)"/>
<path d="M0 0 C13.2 0 26.4 0 40 0 C40 2.64 40 5.28 40 8 C35.05 8 30.1 8 25 8 C25 21.53 25 35.06 25 49 C21.7 49 18.4 49 15 49 C15 35.8 15 22.6 15 9 C10.05 9 5.1 9 0 9 C0 6.03 0 3.06 0 0 Z " fill="#00396B" transform="translate(492,591)"/>
<path d="M0 0 C13.53 0 27.06 0 41 0 C41 2.64 41 5.28 41 8 C35.72 8 30.44 8 25 8 C25 21.2 25 34.4 25 48 C22.03 48 19.06 48 16 48 C16 34.8 16 21.6 16 8 C10.72 8 5.44 8 0 8 C0 5.36 0 2.72 0 0 Z " fill="#00396B" transform="translate(672,591)"/>
<path d="M0 0 C3.63 0 7.26 0 11 0 C11 16.83 11 33.66 11 51 C7.37 51 3.74 51 0 51 C0 34.17 0 17.34 0 0 Z " fill="#00376A" transform="translate(545,591)"/>
<path d="M0 0 C4.021875 -0.0928125 4.021875 -0.0928125 8.125 -0.1875 C8.95789551 -0.21481201 9.79079102 -0.24212402 10.64892578 -0.27026367 C15.50273718 -0.3241177 18.81697656 0.27277043 23 3 C26.10577027 7.6586554 25.61853384 12.54364795 25 18 C23.19196596 21.07365786 22.13960536 22.43019732 19 24 C17.55151418 24.08342159 16.09929131 24.10732861 14.6484375 24.09765625 C13.88192871 24.09515869 13.11541992 24.09266113 12.32568359 24.09008789 C11.35195801 24.08098389 10.37823242 24.07187988 9.375 24.0625 C6.28125 24.041875 3.1875 24.02125 0 24 C0 16.08 0 8.16 0 0 Z " fill="#F9FAFB" transform="translate(657,424)"/>
<path d="M0 0 C3.63 0 7.26 0 11 0 C11.02464156 7.10245508 11.042832 14.20488551 11.05493164 21.30737305 C11.05997349 23.72567172 11.06680678 26.14396733 11.07543945 28.56225586 C11.08751157 32.02979283 11.09322963 35.49728966 11.09765625 38.96484375 C11.10281754 40.05337143 11.10797882 41.14189911 11.11329651 42.26341248 C11.11337204 43.26437454 11.11344757 44.26533661 11.11352539 45.29663086 C11.115746 46.18265488 11.11796661 47.06867889 11.12025452 47.98155212 C11 50 11 50 10 51 C8.50261876 51.0979057 7.00057108 51.12974864 5.5 51.125 C4.6853125 51.12757813 3.870625 51.13015625 3.03125 51.1328125 C1 51 1 51 0 50 C-0.09326716 48.43452952 -0.11745582 46.86487228 -0.11352539 45.29663086 C-0.11344986 44.29566879 -0.11337433 43.29470673 -0.11329651 42.26341248 C-0.10813522 41.1748848 -0.10297394 40.08635712 -0.09765625 38.96484375 C-0.0962413 37.85645645 -0.09482635 36.74806915 -0.09336853 35.60609436 C-0.08775033 32.04986931 -0.07519475 28.49370617 -0.0625 24.9375 C-0.05748734 22.53320403 -0.05292403 20.12890708 -0.04882812 17.72460938 C-0.03777499 11.81638223 -0.02049816 5.90820163 0 0 Z " fill="#004171" transform="translate(361,591)"/>
<path d="M0 0 C3.63 0 7.26 0 11 0 C11 16.5 11 33 11 50 C7.37 50 3.74 50 0 50 C0 33.5 0 17 0 0 Z " fill="#033E6F" transform="translate(521,515)"/>
<path d="M0 0 C3.17625 -0.0825 6.3525 -0.165 9.625 -0.25 C10.6145166 -0.28641602 11.6040332 -0.32283203 12.62353516 -0.36035156 C18.43180489 -0.43314573 21.53991344 0.21830848 26 4 C27.64156736 5.64156736 27.28815992 7.49215801 27.375 9.75 C27.35176468 13.81037168 27.2199311 14.71640463 24.625 18.0625 C21.18802844 20.59931234 19.62181788 21.12418872 15.4296875 21.09765625 C14.62257324 21.09515869 13.81545898 21.09266113 12.98388672 21.09008789 C11.9579541 21.08098389 10.93202148 21.07187988 9.875 21.0625 C4.986875 21.0315625 4.986875 21.0315625 0 21 C0 14.07 0 7.14 0 0 Z " fill="#F1F4F6" transform="translate(440,453)"/>
<path d="M0 0 C3.3 0 6.6 0 10 0 C10 16.5 10 33 10 50 C6.7 50 3.4 50 0 50 C0 33.5 0 17 0 0 Z " fill="#003669" transform="translate(609,515)"/>
<path d="M0 0 C2.84625 -0.061875 5.6925 -0.12375 8.625 -0.1875 C9.51010254 -0.21481201 10.39520508 -0.24212402 11.30712891 -0.27026367 C16.28219813 -0.32233226 19.7215708 0.17623673 24 3 C26.45665197 6.68497796 26.70086491 9.71971786 26 14 C24.20636089 16.8100346 22.98119065 18.50940468 20 20 C18.47851674 20.08372659 16.95344222 20.10730027 15.4296875 20.09765625 C14.62257324 20.09515869 13.81545898 20.09266113 12.98388672 20.09008789 C11.9579541 20.08098389 10.93202148 20.07187988 9.875 20.0625 C4.986875 20.0315625 4.986875 20.0315625 0 20 C0 13.4 0 6.8 0 0 Z " fill="#F6F8F9" transform="translate(440,424)"/>
<path d="M0 0 C0.33 0 0.66 0 1 0 C1 22.77 1 45.54 1 69 C6.61 68.87625 12.22 68.7525 18 68.625 C19.75441406 68.59100098 21.50882812 68.55700195 23.31640625 68.52197266 C24.73178875 68.48671458 26.14715481 68.45078769 27.5625 68.4140625 C28.27728516 68.40270264 28.99207031 68.39134277 29.72851562 68.37963867 C34.74583887 68.23780017 39.16462831 67.35637887 44 66 C44.33 66.66 44.66 67.32 45 68 C37.49434511 71.59645963 30.50203376 72.13105659 22.21875 72.09765625 C21.51979614 72.0962413 20.82084229 72.09482635 20.10070801 72.09336853 C17.90042571 72.0878367 15.70025077 72.07529777 13.5 72.0625 C11.99479315 72.05747616 10.48958468 72.05291482 8.984375 72.04882812 C5.32288265 72.03788977 1.66145183 72.02067359 -2 72 C-2.04631189 63.05534682 -2.08186333 54.11073482 -2.10362434 45.16598797 C-2.11406779 41.01271522 -2.12823719 36.85952441 -2.15087891 32.70629883 C-2.17258734 28.69925441 -2.1845644 24.69228888 -2.18975449 20.6851902 C-2.19345384 19.15535045 -2.20067765 17.62551508 -2.21146011 16.09570885 C-2.22594863 13.95523067 -2.22797908 11.81507975 -2.22705078 9.67456055 C-2.231492 8.45544479 -2.23593323 7.23632904 -2.24050903 5.98027039 C-2 3 -2 3 0 0 Z " fill="#B3C7D2" transform="translate(427,415)"/>
<path d="M0 0 C0.66 0 1.32 0 2 0 C2.20157715 0.57967529 2.4031543 1.15935059 2.61083984 1.7565918 C3.53103841 4.4006431 4.45300277 7.0440754 5.375 9.6875 C5.85066406 11.05551758 5.85066406 11.05551758 6.3359375 12.45117188 C6.8 13.78051758 6.8 13.78051758 7.2734375 15.13671875 C7.55622559 15.94842529 7.83901367 16.76013184 8.13037109 17.59643555 C8.74226249 19.28764015 9.40663547 20.96031562 10.10791016 22.61645508 C11 25 11 25 11 28 C4.07 28 -2.86 28 -10 28 C-6.7 18.76 -3.4 9.52 0 0 Z " fill="#F7F9FA" transform="translate(828,430)"/>
<path d="M0 0 C0.33 0 0.66 0 1 0 C1 16.17 1 32.34 1 49 C4.96 49 8.92 49 13 49 C13 49.99 13 50.98 13 52 C10.72942623 52.05398987 8.45848712 52.09278742 6.1875 52.125 C4.29064453 52.15980469 4.29064453 52.15980469 2.35546875 52.1953125 C-1 52 -1 52 -4 50 C-4.19548119 47.29702652 -4.20734463 44.83984473 -4.07421875 42.1484375 C-4.04777786 41.37440582 -4.02133698 40.60037415 -3.99409485 39.80288696 C-3.90619217 37.32615194 -3.79709593 34.85086085 -3.6875 32.375 C-3.62425548 30.69796872 -3.56238894 29.02088485 -3.50195312 27.34375 C-3.35062967 23.22838572 -3.18029195 19.11419288 -3 15 C-3.66 15 -4.32 15 -5 15 C-5.09796875 15.56847656 -5.1959375 16.13695312 -5.296875 16.72265625 C-6.36323919 22.22914031 -7.98284249 26.2731199 -11 31 C-11.99 30.67 -12.98 30.34 -14 30 C-12.72808985 25.98381149 -11.25481537 22.21540255 -9.43359375 18.41796875 C-8.94826172 17.40412109 -8.46292969 16.39027344 -7.96289062 15.34570312 C-7.45951172 14.30349609 -6.95613281 13.26128906 -6.4375 12.1875 C-5.93025391 11.12595703 -5.42300781 10.06441406 -4.90039062 8.97070312 C-1.13585283 1.13585283 -1.13585283 1.13585283 0 0 Z " fill="#F3F6F7" transform="translate(772,435)"/>
<path d="M0 0 C0 0.66 0 1.32 0 2 C0.99 2.33 1.98 2.66 3 3 C2.05640625 3.15855469 1.1128125 3.31710937 0.140625 3.48046875 C-10.26098749 5.37072162 -21.05335748 7.51537158 -29 15 C-31.64013211 19.41902882 -32.38406557 22.71095051 -32.43237305 27.83154297 C-32.44766052 28.81309105 -32.44766052 28.81309105 -32.46325684 29.81446838 C-32.49322447 31.95713034 -32.50262724 34.0993441 -32.51171875 36.2421875 C-32.5285776 37.73578356 -32.54672946 39.22936553 -32.56611633 40.72293091 C-32.61349201 44.63878986 -32.64338139 48.55459169 -32.66955566 52.47064209 C-32.69942427 56.47273027 -32.74593284 60.4746219 -32.79101562 64.4765625 C-32.87690711 72.31761147 -32.94431491 80.15867859 -33 88 C-34.485 88.495 -34.485 88.495 -36 89 C-36.06956294 80.22029475 -36.1228431 71.44068462 -36.15543652 62.66076374 C-36.1710811 58.58372056 -36.19229708 54.50686617 -36.22631836 50.42993164 C-36.25895524 46.49418982 -36.2768621 42.5586294 -36.28463173 38.62276268 C-36.2901675 37.12247043 -36.30097761 35.62218791 -36.31719017 34.12197304 C-36.33902272 32.01770328 -36.3419646 29.91417956 -36.34057617 27.80981445 C-36.34723801 26.61290482 -36.35389984 25.41599518 -36.36076355 24.18281555 C-35.96427458 20.68481454 -35.01209734 18.84791089 -33 16 C-32.65582031 15.41476562 -32.31164062 14.82953125 -31.95703125 14.2265625 C-26.30409313 6.31630779 -14.77822768 2.67592818 -5.625 0.5625 C-2 0 -2 0 0 0 Z " fill="#A4AFB6" transform="translate(234,436)"/>
<path d="M0 0 C13.2 0 26.4 0 40 0 C40 2.97 40 5.94 40 9 C35.05 9 30.1 9 25 9 C25.00785522 10.748573 25.00785522 10.748573 25.01586914 12.5324707 C25.03395871 16.85424025 25.04544653 21.17600644 25.05493164 25.49780273 C25.05996279 27.36890221 25.06678835 29.23999775 25.07543945 31.11108398 C25.08755829 33.79932628 25.09324047 36.48751664 25.09765625 39.17578125 C25.10281754 40.01337479 25.10797882 40.85096832 25.11329651 41.71394348 C25.11362064 45.06375742 25.06684515 47.79946456 24 51 C20.7 51 17.4 51 14 51 C14 37.14 14 23.28 14 9 C9.38 9 4.76 9 0 9 C0 6.03 0 3.06 0 0 Z M1 2 C1 3.65 1 5.3 1 7 C5.29 7.33 9.58 7.66 14 8 C14.33 21.2 14.66 34.4 15 48 C17.97 48 20.94 48 24 48 C24 34.47 24 20.94 24 7 C28.95 7 33.9 7 39 7 C39 5.35 39 3.7 39 2 C26.46 2 13.92 2 1 2 Z " fill="#214A7A" transform="translate(568,591)"/>
<path d="M0 0 C12.20118453 -0.49297715 12.20118453 -0.49297715 15.91796875 1.80078125 C18 4 18 4 18.125 7.4375 C16.73329856 11.84455454 15.90930952 13.47044678 12 16 C7.90404218 16.41599572 4.13681819 16.2272977 0 16 C0 10.72 0 5.44 0 0 Z " fill="#ECF0F4" transform="translate(420,523)"/>
<path d="M0 0 C4.19209102 3.67312343 6.74482215 8.18473058 9.62109375 12.88671875 C10.73133146 14.64799478 11.84404041 16.40771503 12.95898438 18.16601562 C14.7059359 20.92504504 16.43827338 23.68877632 18.13061523 26.48168945 C24.01880563 37.57616191 24.01880563 37.57616191 33.74658203 44.42822266 C37.01694537 44.68142638 39.7877575 44.62455669 43 44 C43 44.99 43 45.98 43 47 C29.97813067 48.20665971 29.97813067 48.20665971 25.65625 45.5703125 C23.8118842 43.48282575 22.40243416 41.40640514 21 39 C20.25943359 37.80890625 20.25943359 37.80890625 19.50390625 36.59375 C18.48829663 34.92656745 17.49388629 33.24631181 16.51953125 31.5546875 C15.01505543 29.0253117 13.39581683 26.64557073 11.6875 24.25 C8.75242899 20.08813526 5.83702744 15.91678774 3 11.6875 C2.38451294 10.80723145 2.38451294 10.80723145 1.7565918 9.90917969 C-0.11239217 7.08493725 -1.04393697 5.51282686 -0.75 2.08203125 C-0.5025 1.39496094 -0.255 0.70789063 0 0 Z " fill="#E3E9EC" transform="translate(888,440)"/>
<path d="M0 0 C10.56 0 21.12 0 32 0 C32.495 0.99 32.495 0.99 33 2 C22.77 2 12.54 2 2 2 C2 24.11 2 46.22 2 69 C5.3 69 8.6 69 12 69 C12 60.42 12 51.84 12 43 C12.33 43 12.66 43 13 43 C13 51.91 13 60.82 13 70 C8.71 70 4.42 70 0 70 C0 46.9 0 23.8 0 0 Z " fill="#1B4273" transform="translate(644,414)"/>
<path d="M0 0 C0.66 0 1.32 0 2 0 C2 15.51 2 31.02 2 47 C4.31 47 6.62 47 9 47 C9 31.49 9 15.98 9 0 C9.66 0 10.32 0 11 0 C11.02526787 7.10244999 11.04283201 14.20488848 11.05493164 21.30737305 C11.05997349 23.72567172 11.06680678 26.14396733 11.07543945 28.56225586 C11.08751157 32.02979283 11.09322963 35.49728966 11.09765625 38.96484375 C11.10281754 40.05337143 11.10797882 41.14189911 11.11329651 42.26341248 C11.11337204 43.26437454 11.11344757 44.26533661 11.11352539 45.29663086 C11.115746 46.18265488 11.11796661 47.06867889 11.12025452 47.98155212 C11 50 11 50 10 51 C8.50261876 51.0979057 7.00057108 51.12974864 5.5 51.125 C4.6853125 51.12757813 3.870625 51.13015625 3.03125 51.1328125 C1 51 1 51 0 50 C-0.09326716 48.43452952 -0.11745582 46.86487228 -0.11352539 45.29663086 C-0.11344986 44.29566879 -0.11337433 43.29470673 -0.11329651 42.26341248 C-0.10813522 41.1748848 -0.10297394 40.08635712 -0.09765625 38.96484375 C-0.0962413 37.85645645 -0.09482635 36.74806915 -0.09336853 35.60609436 C-0.08775033 32.04986931 -0.07519475 28.49370617 -0.0625 24.9375 C-0.05748734 22.53320403 -0.05292403 20.12890708 -0.04882812 17.72460938 C-0.03777499 11.81638496 -0.02101917 5.9081969 0 0 Z " fill="#01255E" transform="translate(361,591)"/>
<path d="M0 0 C5.28 0 10.56 0 16 0 C16 23.1 16 46.2 16 70 C11.71 70 7.42 70 3 70 C3 54.16 3 38.32 3 22 C3.33 22 3.66 22 4 22 C4 37.51 4 53.02 4 69 C7.3 69 10.6 69 14 69 C14 46.89 14 24.78 14 2 C9.38 2 4.76 2 0 2 C0 1.34 0 0.68 0 0 Z " fill="#214273" transform="translate(770,414)"/>
<path d="M0 0 C9.9 0 19.8 0 30 0 C30.66 0.66 31.32 1.32 32 2 C22.1 2 12.2 2 2 2 C2 24.11 2 46.22 2 69 C9.92 69 17.84 69 26 69 C26 69.33 26 69.66 26 70 C17.42 70 8.84 70 0 70 C0 46.9 0 23.8 0 0 Z " fill="#1A4274" transform="translate(358,414)"/>
<path d="M0 0 C0.33 0 0.66 0 1 0 C1.08636719 1.18335938 1.17273438 2.36671875 1.26171875 3.5859375 C2.19967131 14.75040812 3.32303635 23.91589069 11.875 31.9375 C20.64852152 38.95962175 30.09107173 39.55251345 41 39 C44.09271054 38.51212385 46.97241929 37.82103884 50 37 C47.16007006 40.28833993 44.32077816 41.77025854 39.96289062 42.20166016 C37.55502808 42.30583665 35.16001719 42.32192886 32.75 42.3125 C31.53763672 42.33666992 31.53763672 42.33666992 30.30078125 42.36132812 C20.19820126 42.36941019 13.51486416 39.44009501 6.234375 32.46484375 C1.05900565 26.75565134 -1.71892167 20.55836215 -3 13 C-2.5390625 10.76953125 -2.5390625 10.76953125 -2 9 C-1.67 9.33 -1.34 9.66 -1 10 C-0.67 6.7 -0.34 3.4 0 0 Z " fill="#C8D4DB" transform="translate(510,445)"/>
<path d="M0 0 C0.33 0 0.66 0 1 0 C1.84291605 22.01894007 2.09182317 43.96243882 2 66 C17.18 66 32.36 66 48 66 C48 66.66 48 67.32 48 68 C32.16 68 16.32 68 0 68 C0 45.56 0 23.12 0 0 Z " fill="#CED7DC" transform="translate(584,419)"/>
<path d="M0 0 C0.33 0 0.66 0 1 0 C1.0231211 12.89072255 1.04091389 25.7814402 1.05181217 38.67217922 C1.05704151 44.65719266 1.06414008 50.64219196 1.07543945 56.62719727 C1.08626653 62.39783429 1.09227645 68.16845768 1.09487724 73.93910408 C1.09673182 76.14602943 1.10035304 78.352954 1.10573006 80.55987358 C1.1129381 83.63946041 1.11399104 86.71899014 1.11352539 89.79858398 C1.11712067 90.72071182 1.12071594 91.64283966 1.12442017 92.59291077 C1.11405216 98.88594784 1.11405216 98.88594784 0 100 C-1.38801884 100.09715379 -2.78048673 100.13203265 -4.171875 100.140625 C-15.32127729 100.34622837 -25.52012597 101.39356668 -36.29589844 104.36035156 C-37.11864258 104.58432617 -37.94138672 104.80830078 -38.7890625 105.0390625 C-39.50787598 105.24740723 -40.22668945 105.45575195 -40.96728516 105.67041016 C-43.27076762 106.04390299 -44.79665189 105.71049769 -47 105 C-31.59225548 97.49646484 -17.49748552 98 0 98 C0 65.66 0 33.32 0 0 Z " fill="#1A5D89" transform="translate(257,425)"/>
<path d="M0 0 C13.2 0 26.4 0 40 0 C40 2.64 40 5.28 40 8 C35.05 8 30.1 8 25 8 C25 7.67 25 7.34 25 7 C29.62 7 34.24 7 39 7 C39 5.35 39 3.7 39 2 C26.79 2 14.58 2 2 2 C2 3.65 2 5.3 2 7 C6.62 7 11.24 7 16 7 C16 20.53 16 34.06 16 48 C18.97 48 21.94 48 25 48 C25 48.33 25 48.66 25 49 C21.7 49 18.4 49 15 49 C15 35.8 15 22.6 15 9 C10.05 9 5.1 9 0 9 C0 6.03 0 3.06 0 0 Z " fill="#244D7B" transform="translate(492,591)"/>
<path d="M0 0 C0.33 0 0.66 0 1 0 C1 21.78 1 43.56 1 66 C11.56 65.67 22.12 65.34 33 65 C33 64.67 33 64.34 33 64 C33.6290625 63.85304688 34.258125 63.70609375 34.90625 63.5546875 C43.8608054 61.20816244 49.73862828 56.65270746 56 50 C55.50679865 54.27441166 53.05024441 57.16613449 50 60 C34.74566967 71.23442827 19.50199825 68 0 68 C0 45.56 0 23.12 0 0 Z " fill="#B4C5CC" transform="translate(356,419)"/>
<path d="M0 0 C3.3 0 6.6 0 10 0 C10 0.33 10 0.66 10 1 C7.36 1 4.72 1 2 1 C2 16.18 2 31.36 2 47 C4.31 47 6.62 47 9 47 C9 36.44 9 25.88 9 15 C9.33 15 9.66 15 10 15 C10 26.22 10 37.44 10 49 C6.7 49 3.4 49 0 49 C0 32.83 0 16.66 0 0 Z " fill="#013268" transform="translate(548,516)"/>
<path d="M0 0 C3.3 0 6.6 0 10 0 C10 15.84 10 31.68 10 48 C6.37 48 2.74 48 -1 48 C-1 47.67 -1 47.34 -1 47 C1.97 47 4.94 47 8 47 C8 32.15 8 17.3 8 2 C6.35 2 4.7 2 3 2 C2.67 10.25 2.34 18.5 2 27 C1.67 27 1.34 27 1 27 C0.67 18.09 0.34 9.18 0 0 Z " fill="#002B61" transform="translate(421,591)"/>
<path d="M0 0 C0.66 0 1.32 0 2 0 C2 15.84 2 31.68 2 48 C4.31 48 6.62 48 9 48 C9 37.44 9 26.88 9 16 C9.33 16 9.66 16 10 16 C10 27.22 10 38.44 10 50 C6.7 50 3.4 50 0 50 C0 33.5 0 17 0 0 Z " fill="#17386B" transform="translate(635,515)"/>
<path d="M0 0 C2.72350108 2.60508799 3.95441809 3.9303144 4.12025452 7.822052 C4.1169236 9.62740921 4.1169236 9.62740921 4.11352539 11.46923828 C4.11367142 12.13277313 4.11381744 12.79630798 4.1139679 13.47994995 C4.11327031 15.67677053 4.10548514 17.8735067 4.09765625 20.0703125 C4.09579152 21.59203037 4.09436788 23.11374884 4.09336853 24.63546753 C4.08954767 28.64351047 4.07972104 32.65151726 4.06866455 36.6595459 C4.05844118 40.74828604 4.05386892 44.83703201 4.04882812 48.92578125 C4.0380984 56.95053744 4.02102713 64.97526422 4 73 C3.01 72.34 2.02 71.68 1 71 C0.6526947 68.32548523 0.6526947 68.32548523 0.69116211 64.88549805 C0.69784409 63.60043869 0.70452606 62.31537933 0.71141052 60.99137878 C0.7333784 59.58149195 0.75535639 58.17160528 0.77734375 56.76171875 C0.78801925 55.31925023 0.79707613 53.8767689 0.80458069 52.4342804 C0.82740254 48.63019556 0.86644489 44.82647432 0.9105835 41.02258301 C0.98064451 34.94459152 1.03612368 28.86662245 1.07293892 22.78833961 C1.08960443 20.66717876 1.11917234 18.54646209 1.14964294 16.42546082 C1.15947708 15.13094498 1.16931122 13.83642914 1.17944336 12.50268555 C1.19967812 10.79631172 1.19967812 10.79631172 1.22032166 9.0554657 C0.99747804 5.96502489 0.31580118 3.78598325 -1 1 C-0.67 0.67 -0.34 0.34 0 0 Z " fill="#AFB4B8" transform="translate(186,452)"/>
<path d="M0 0 C17.60498577 -0.57721265 41.27888344 0.51736902 55 13 C55.70125 13.969375 56.4025 14.93875 57.125 15.9375 C58.053125 16.9584375 58.053125 16.9584375 59 18 C63.15395838 17.92582217 66.4347874 17.13912756 70 15 C66.125 21.875 66.125 21.875 65 23 C62.69921875 23.35546875 62.69921875 23.35546875 60 23 C57.89453125 20.98828125 57.89453125 20.98828125 55.8125 18.3125 C46.01169927 6.90237239 31.30204844 4.33709397 16.88745117 3.11206055 C14.81955717 2.95581395 12.75064467 2.81243595 10.6809082 2.68286133 C9.72917725 2.61993896 8.77744629 2.5570166 7.796875 2.4921875 C6.51828613 2.42040283 6.51828613 2.42040283 5.21386719 2.34716797 C3 2 3 2 0 0 Z " fill="#6A7881" transform="translate(132,523)"/>
<path d="M0 0 C1.7208877 2.58133154 2.4651263 4.12794206 3.2890625 7.01171875 C3.61777344 8.14770508 3.61777344 8.14770508 3.953125 9.30664062 C4.17484375 10.09232422 4.3965625 10.87800781 4.625 11.6875 C4.85445313 12.48478516 5.08390625 13.28207031 5.3203125 14.10351562 C5.88486236 16.0676787 6.44304988 18.03366847 7 20 C2.38 20 -2.24 20 -7 20 C-4.69 13.4 -2.38 6.8 0 0 Z " fill="#ECF1F4" transform="translate(484,526)"/>
<path d="M0 0 C3.17538332 0.34021964 4.02276865 1.02466604 6.25 3.4375 C8 6 8 6 8 8 C8.66 8.33 9.32 8.66 10 9 C10 9.33 10 9.66 10 10 C13.63 10 17.26 10 21 10 C20.67 10.66 20.34 11.32 20 12 C17.671875 12.6328125 17.671875 12.6328125 14.75 13.125 C13.79609375 13.29257812 12.8421875 13.46015625 11.859375 13.6328125 C9.19900755 13.97444439 6.67794365 14.06841462 4 14 C3.855625 13.236875 3.71125 12.47375 3.5625 11.6875 C3.0367406 8.91827092 3.0367406 8.91827092 2 6 C-4.14930626 3.00418413 -11.15525576 3.21524297 -17.625 5 C-18.800625 5.495 -18.800625 5.495 -20 6 C-17.375 2.125 -17.375 2.125 -14 1 C-9.25401528 0.6978212 -4.62324448 0.80690465 0 2 C0 1.34 0 0.68 0 0 Z " fill="#E6EAED" transform="translate(553,427)"/>
<path d="M0 0 C0.33 0 0.66 0 1 0 C1 16.17 1 32.34 1 49 C4.96 49 8.92 49 13 49 C13 49.99 13 50.98 13 52 C10.72942623 52.05398987 8.45848712 52.09278742 6.1875 52.125 C4.29064453 52.15980469 4.29064453 52.15980469 2.35546875 52.1953125 C-1 52 -1 52 -4 50 C-4.19574173 47.43787716 -4.20808769 45.1356004 -4.07421875 42.5859375 C-4.04777786 41.85629791 -4.02133698 41.12665833 -3.99409485 40.37490845 C-3.90620882 38.04078428 -3.79710837 35.70819531 -3.6875 33.375 C-3.62425363 31.79432613 -3.56238715 30.21359639 -3.50195312 28.6328125 C-3.35064938 24.75437837 -3.18031236 20.87718941 -3 17 C-2.67 17 -2.34 17 -2 17 C-1.67 27.23 -1.34 37.46 -1 48 C-1.01160156 44.61878906 -1.02320313 41.23757813 -1.03515625 37.75390625 C-1.04294575 34.4940602 -1.04902312 31.23421517 -1.05493164 27.97436523 C-1.05997325 25.70157409 -1.06680637 23.4287862 -1.07543945 21.15600586 C-1.08751261 17.89696449 -1.09322987 14.63796583 -1.09765625 11.37890625 C-1.10281754 10.35599991 -1.10797882 9.33309357 -1.11329651 8.27919006 C-1.11337204 7.33829025 -1.11344757 6.39739044 -1.11352539 5.42797852 C-1.115746 4.59524918 -1.11796661 3.76251984 -1.12025452 2.90455627 C-1 1 -1 1 0 0 Z " fill="#C5D5DD" transform="translate(772,435)"/>
<path d="M0 0 C3.3 0 6.6 0 10 0 C10 16.17 10 32.34 10 49 C9.34 48.67 8.68 48.34 8 48 C8.33 32.82 8.66 17.64 9 2 C6.69 2 4.38 2 2 2 C2 12.56 2 23.12 2 34 C1.34 33.67 0.68 33.34 0 33 C0 22.11 0 11.22 0 0 Z " fill="#022A61" transform="translate(582,515)"/>
<path d="M0 0 C1.88051981 2.32826262 3.23701359 4.48350771 4.5625 7.1875 C5.69875811 10.09641953 5.69875811 10.09641953 8 11 C8.33 10.34 8.66 9.68 9 9 C10.00484204 10.95585325 11.00373805 12.91476237 12 14.875 C12.556875 15.96554687 13.11375 17.05609375 13.6875 18.1796875 C15 21 15 21 15 23 C19.95 23 24.9 23 30 23 C30 23.99 30 24.98 30 26 C18.41463895 27.54032641 18.41463895 27.54032641 13 26 C9.02907184 22.25598202 7.15951461 17.95352578 5 13 C4.01738689 11.30231695 3.019899 9.61304835 2 7.9375 C0.15065919 4.76807052 0 3.92353759 0 0 Z " fill="#DBE2E5" transform="translate(669,461)"/>
<path d="M0 0 C0.33 0 0.66 0 1 0 C1 15.84 1 31.68 1 48 C3.97 48 6.94 48 10 48 C10 32.16 10 16.32 10 0 C10.33 0 10.66 0 11 0 C11 16.83 11 33.66 11 51 C7.37 51 3.74 51 0 51 C0 34.17 0 17.34 0 0 Z " fill="#33658E" transform="translate(545,591)"/>
<path d="M0 0 C0.99 0 1.98 0 3 0 C3 2.97 3 5.94 3 9 C7.62 9 12.24 9 17 9 C16.67 11.64 16.34 14.28 16 17 C15.34 16.34 14.68 15.68 14 15 C11.6545346 14.72423013 9.29642689 14.55028694 6.9375 14.4375 C0.09722222 14.09722222 0.09722222 14.09722222 -1 13 C-1.09873816 11.00200428 -1.12971799 9.00042842 -1.125 7 C-1.12757813 5.906875 -1.13015625 4.81375 -1.1328125 3.6875 C-1 1 -1 1 0 0 Z " fill="#D9E3E8" transform="translate(546,447)"/>
<path d="M0 0 C13.91926069 -0.2805674 30.33025821 1.77032536 40.859375 11.6953125 C41.56578125 12.45585937 42.2721875 13.21640625 43 14 C39.66856468 14 39.15839956 13.58295053 36.5 11.8125 C25.87176916 5.70692058 12.11631565 3.26602689 0 3 C0 2.01 0 1.02 0 0 Z " fill="#B1B7BC" transform="translate(141,435)"/>
<path d="M0 0 C2.87139145 2.71854171 5.10231751 5.43961532 7.234375 8.765625 C7.80800781 9.65507812 8.38164063 10.54453125 8.97265625 11.4609375 C9.55917969 12.38132812 10.14570312 13.30171875 10.75 14.25 C11.35199219 15.18585938 11.95398438 16.12171875 12.57421875 17.0859375 C14.05398106 19.38778998 15.52905333 21.69250804 17 24 C16.01 24.33 15.02 24.66 14 25 C9.92964015 21.17944563 6.74515721 17.12076068 3.625 12.5 C2.93083984 11.52353516 2.93083984 11.52353516 2.22265625 10.52734375 C-1.0492235 5.69277517 -1.0492235 5.69277517 -0.7890625 2.03125 C-0.52867187 1.3609375 -0.26828125 0.690625 0 0 Z " fill="#D9E0E4" transform="translate(888,440)"/>
<path d="M0 0 C2.265625 0.05078125 2.265625 0.05078125 5 1 C6.52656706 3.43709819 7.6439342 5.57113358 8.75 8.1875 C9.05292969 8.84814453 9.35585938 9.50878906 9.66796875 10.18945312 C11.41780556 14.1285302 12.36988592 17.71397654 13 22 C13.9601817 23.68991979 14.95355934 25.36209288 16 27 C16 27.66 16 28.32 16 29 C12.56491829 27.96487493 11.8697201 26.77989822 10 23.62109375 C9.32038639 22.23282606 8.6542937 20.83787909 8 19.4375 C7.65259766 18.71675293 7.30519531 17.99600586 6.94726562 17.25341797 C5.95090915 15.17518287 4.97248709 13.08949077 4 11 C3.5359375 10.01386719 3.071875 9.02773438 2.59375 8.01171875 C0 2.35178571 0 2.35178571 0 0 Z " fill="#DAE1E5" transform="translate(726,449)"/>
<path d="M0 0 C0.66 0 1.32 0 2 0 C2.20157715 0.57967529 2.4031543 1.15935059 2.61083984 1.7565918 C3.53103841 4.4006431 4.45300277 7.0440754 5.375 9.6875 C5.69210937 10.59951172 6.00921875 11.51152344 6.3359375 12.45117188 C6.6453125 13.33740234 6.9546875 14.22363281 7.2734375 15.13671875 C7.55622559 15.94842529 7.83901367 16.76013184 8.13037109 17.59643555 C8.74226249 19.28764015 9.40663547 20.96031562 10.10791016 22.61645508 C11 25 11 25 11 28 C7.04 27.67 3.08 27.34 -1 27 C-1 26.67 -1 26.34 -1 26 C1.64 26 4.28 26 7 26 C6.566875 25.05898438 6.13375 24.11796875 5.6875 23.1484375 C5.12441716 21.89088581 4.56194966 20.63305847 4 19.375 C3.71382812 18.75753906 3.42765625 18.14007813 3.1328125 17.50390625 C1.36170081 13.49782029 0.67744035 10.36799531 1 6 C0.34 5.67 -0.32 5.34 -1 5 C-0.67 3.35 -0.34 1.7 0 0 Z " fill="#EAEFF1" transform="translate(828,430)"/>
<path d="M0 0 C0.33 0 0.66 0 1 0 C1.00410889 1.04865234 1.00821777 2.09730469 1.01245117 3.17773438 C1.03436033 7.0994461 1.08876964 11.02017121 1.15258789 14.94140625 C1.17566587 16.6327157 1.19013951 18.32416678 1.19555664 20.015625 C0.9519888 32.97113716 0.9519888 32.97113716 7 44 C11.538366 47.34974633 15.64172782 48.14507629 21.1875 48.5625 C22.27417969 48.64628906 23.36085938 48.73007812 24.48046875 48.81640625 C25.31191406 48.87699219 26.14335938 48.93757812 27 49 C22.71525493 51.85649671 19.02877493 51.60345299 14 51 C8.67728269 49.32248262 5.02173409 46.76504223 2 42 C-0.28560518 37.54404316 -0.25982192 33.31448585 -0.1953125 28.41796875 C-0.1924826 27.60378983 -0.18965271 26.7896109 -0.18673706 25.95075989 C-0.17558584 23.362854 -0.15049083 20.77530042 -0.125 18.1875 C-0.11496365 16.42773939 -0.10583894 14.66797333 -0.09765625 12.90820312 C-0.0756631 8.60533402 -0.04116836 4.30272664 0 0 Z " fill="#B2C3CF" transform="translate(619,591)"/>
<path d="M0 0 C0.33 0 0.66 0 1 0 C1 13.53 1 27.06 1 41 C-2.3 41 -5.6 41 -9 41 C-9 33.08 -9 25.16 -9 17 C-8.67 17 -8.34 17 -8 17 C-8 24.26 -8 31.52 -8 39 C-5.69 39 -3.38 39 -1 39 C-1.01160156 38.11183594 -1.02320313 37.22367188 -1.03515625 36.30859375 C-1.12079642 24.18439225 -0.59838502 12.10774793 0 0 Z " fill="#033369" transform="translate(382,524)"/>
<path d="M0 0 C0.91330078 0.00451172 1.82660156 0.00902344 2.76757812 0.01367188 C4.99095738 0.0253126 7.21419121 0.04166149 9.4375 0.0625 C9.4375 0.7225 9.4375 1.3825 9.4375 2.0625 C8.60279175 2.06866333 8.60279175 2.06866333 7.7512207 2.07495117 C-4.21161968 2.22783483 -15.29453597 3.23967893 -26.8581543 6.42260742 C-27.680979 6.6466626 -28.50380371 6.87071777 -29.3515625 7.1015625 C-30.07037598 7.30990723 -30.78918945 7.51825195 -31.52978516 7.73291016 C-33.83326762 8.10640299 -35.35915189 7.77299769 -37.5625 7.0625 C-25.38009316 1.12969667 -13.42560075 -0.12805048 0 0 Z " fill="#7B868E" transform="translate(247.5625,522.9375)"/>
<path d="M0 0 C5.75 4.75 5.75 4.75 8 7 C8.2285168 9.73329829 8.33167507 12.32918049 8.3125 15.0625 C8.30839111 16.21298828 8.30839111 16.21298828 8.30419922 17.38671875 C8.19850636 23.12085995 7.43950384 27.74568403 5 33 C4.01 33.495 4.01 33.495 3 34 C3.0721875 33.35675781 3.144375 32.71351563 3.21875 32.05078125 C5.06343443 16.41540249 5.06343443 16.41540249 0 2 C0 1.34 0 0.68 0 0 Z " fill="#D5DDE1" transform="translate(394,432)"/>
<path d="M0 0 C5.43300894 0.25269809 8.16534279 2.25249409 12 6 C13.70942896 8.45265894 14.1165767 9.30053979 13.625 12.25 C13.315625 13.11625 13.315625 13.11625 13 14 C12.525625 13.071875 12.05125 12.14375 11.5625 11.1875 C8.80928401 6.95255322 4.69784419 6.14434666 0 5 C0 4.34 0 3.68 0 3 C-4.29 3 -8.58 3 -13 3 C-13 2.34 -13 1.68 -13 1 C-11.71802734 1.01740234 -11.71802734 1.01740234 -10.41015625 1.03515625 C-8.75306641 1.04869141 -8.75306641 1.04869141 -7.0625 1.0625 C-5.40927734 1.07990234 -5.40927734 1.07990234 -3.72265625 1.09765625 C-1.08552366 1.31262571 -1.08552366 1.31262571 0 0 Z " fill="#E5EAEC" transform="translate(386,425)"/>
<path d="M0 0 C5.28 0 10.56 0 16 0 C16 13.2 16 26.4 16 40 C18.97 40 21.94 40 25 40 C25 40.99 25 41.98 25 43 C21.7 43 18.4 43 15 43 C15 29.14 15 15.28 15 1 C10.05 1 5.1 1 0 1 C0 0.67 0 0.34 0 0 Z " fill="#7E9EB5" transform="translate(672,599)"/>
<path d="M0 0 C4.95 0 9.9 0 15 0 C15 13.2 15 26.4 15 40 C17.97 40 20.94 40 24 40 C24 40.99 24 41.98 24 43 C20.7 43 17.4 43 14 43 C14 29.14 14 15.28 14 1 C9.38 1 4.76 1 0 1 C0 0.67 0 0.34 0 0 Z " fill="#89A6B9" transform="translate(568,599)"/>
<path d="M0 0 C13.2 0 26.4 0 40 0 C40 0.33 40 0.66 40 1 C27.32273538 1.65910557 14.69603076 2.1637024 2 2 C2 3.65 2 5.3 2 7 C6.29 7.33 10.58 7.66 15 8 C15 8.33 15 8.66 15 9 C10.05 9 5.1 9 0 9 C0 6.03 0 3.06 0 0 Z " fill="#1A4C7D" transform="translate(357,515)"/>
<path d="M0 0 C0.33 0 0.66 0 1 0 C1 15.51 1 31.02 1 47 C3.31 47 5.62 47 8 47 C8 41.72 8 36.44 8 31 C8.33 31 8.66 31 9 31 C9 36.94 9 42.88 9 49 C5.7 49 2.4 49 -1 49 C-0.67 32.83 -0.34 16.66 0 0 Z " fill="#02255D" transform="translate(411,516)"/>
<path d="M0 0 C0.33 0 0.66 0 1 0 C1.02526787 7.10244999 1.04283201 14.20488848 1.05493164 21.30737305 C1.05997349 23.72567172 1.06680678 26.14396733 1.07543945 28.56225586 C1.08751157 32.02979283 1.09322963 35.49728966 1.09765625 38.96484375 C1.10281754 40.05337143 1.10797882 41.14189911 1.11329651 42.26341248 C1.11337204 43.26437454 1.11344757 44.26533661 1.11352539 45.29663086 C1.115746 46.18265488 1.11796661 47.06867889 1.12025452 47.98155212 C1 50 1 50 0 51 C-1.51928038 51.07179964 -3.04167482 51.08392007 -4.5625 51.0625 C-5.38878906 51.05347656 -6.21507812 51.04445313 -7.06640625 51.03515625 C-7.70449219 51.02355469 -8.34257812 51.01195312 -9 51 C-9.495 49.515 -9.495 49.515 -10 48 C-6.7 48 -3.4 48 0 48 C0 32.16 0 16.32 0 0 Z " fill="#5B88AA" transform="translate(371,591)"/>
<path d="M0 0 C0.33 0 0.66 0 1 0 C1.08636719 1.18335938 1.17273438 2.36671875 1.26171875 3.5859375 C2.22109887 15.00546082 3.36137397 24.12443602 12.3125 32.125 C13.52825045 33.10029704 14.7527437 34.06533151 16 35 C15.01 35.495 15.01 35.495 14 36 C8.59036647 31.70450935 3.89088669 27.3933071 1 21 C1 20.01 1 19.02 1 18 C0.01 18 -0.98 18 -2 18 C-2.33 15.03 -2.66 12.06 -3 9 C-2.01 9.495 -2.01 9.495 -1 10 C-0.67 6.7 -0.34 3.4 0 0 Z " fill="#D7E2E7" transform="translate(510,445)"/>
<path d="M0 0 C0.33 0 0.66 0 1 0 C1 11.22 1 22.44 1 34 C-2.3 34 -5.6 34 -9 34 C-9 30.37 -9 26.74 -9 23 C-8.34 22.67 -7.68 22.34 -7 22 C-7 25.3 -7 28.6 -7 32 C-4.69 32 -2.38 32 0 32 C0 21.44 0 10.88 0 0 Z " fill="#02215A" transform="translate(557,531)"/>
<path d="M0 0 C1.37562854 1.28965176 2.70766393 2.62689293 4 4 C4 4.66 4 5.32 4 6 C4.7425 6.28875 5.485 6.5775 6.25 6.875 C9 8 9 8 10.76953125 9.05859375 C13.74791044 10.31566798 16.21479256 10.22848241 19.4375 10.1875 C21.10619141 10.17783203 21.10619141 10.17783203 22.80859375 10.16796875 C25.65100884 10.01836796 28.23401547 9.64625807 31 9 C28.33861783 11.91484713 26.36810053 12.87636425 22.36328125 13.23828125 C13.65599561 13.45011022 8.65898343 12.04915286 2 6.5 C0 4 0 4 0 0 Z " fill="#90AABC" transform="translate(444,629)"/>
<path d="M0 0 C3 1 3 1 4.75 3.375 C9.2759303 8.65525202 16.01990808 9.6247829 22.546875 11.15625 C25.12029334 12.04137478 26.27794535 12.93353442 28 15 C27.67 15.66 27.34 16.32 27 17 C26.19949219 16.61908203 26.19949219 16.61908203 25.3828125 16.23046875 C21.25192107 14.3222542 17.28755796 12.7552104 12.875 11.625 C7.99431396 10.23160601 4.19934225 8.00162379 1 4 C0.31640625 1.80859375 0.31640625 1.80859375 0 0 Z " fill="#A8BCCA" transform="translate(444,608)"/>
<path d="M0 0 C2.25597827 2.25597827 2.96574192 4.04603867 4.125 7 C4.47820313 7.886875 4.83140625 8.77375 5.1953125 9.6875 C6 12 6 12 6 14 C10.62 14 15.24 14 20 14 C20 14.66 20 15.32 20 16 C15.05 16 10.1 16 5 16 C0 4.5 0 4.5 0 0 Z " fill="#C9D4DA" transform="translate(842,471)"/>
<path d="M0 0 C0.66 0 1.32 0 2 0 C2.35191406 0.72445313 2.70382812 1.44890625 3.06640625 2.1953125 C6.30837614 8.5438175 9.26249684 12.75424766 15 17 C14.67 17.99 14.34 18.98 14 20 C1.99200581 10.19694767 1.99200581 10.19694767 0.1875 2.5625 C0.125625 1.716875 0.06375 0.87125 0 0 Z " fill="#BCC9D1" transform="translate(509,463)"/>
<path d="M0 0 C5.12583611 -0.10251672 9.94997778 -0.03590199 15 1 C15 1.33 15 1.66 15 2 C10.71 2 6.42 2 2 2 C2 3.65 2 5.3 2 7 C6.29 7 10.58 7 15 7 C15 7.33 15 7.66 15 8 C10.05 8 5.1 8 0 8 C0 5.36 0 2.72 0 0 Z " fill="#072C62" transform="translate(672,591)"/>
<path d="M0 0 C0.99 0.33 1.98 0.66 3 1 C2.06027344 1.60134766 2.06027344 1.60134766 1.1015625 2.21484375 C-3.35507595 5.31480835 -6.40776326 7.45032995 -7.5625 12.9375 C-7.74501533 14.28721215 -7.90449442 15.64135604 -8 17 C-8.66 17 -9.32 17 -10 17 C-10.29506821 11.98384047 -10.13763361 9.00318771 -7 5 C-4.73730799 3.01324604 -2.69167305 1.34583653 0 0 Z " fill="#265884" transform="translate(454,591)"/>
<path d="M0 0 C3.73318652 1.4474007 4.73819113 3.04452908 6.5 6.5625 C8.49339179 9.78497792 9.33847237 10.8240438 13.0546875 11.8125 C16.06390829 12.03907662 18.98582828 12.12193251 22 12 C22 12.33 22 12.66 22 13 C9.66374738 14.21672629 9.66374738 14.21672629 5.8046875 11.39453125 C3.2220421 7.93586292 1.28998429 4.12794972 0 0 Z " fill="#EEF3F5" transform="translate(908,472)"/>
<path d="M0 0 C2.97 0 5.94 0 9 0 C9 2.64 9 5.28 9 8 C3.72 8 -1.56 8 -7 8 C-7 7.67 -7 7.34 -7 7 C-2.38 7 2.24 7 7 7 C7 5.35 7 3.7 7 2 C6.01 2.33 5.02 2.66 4 3 C1.8125 2.5625 1.8125 2.5625 0 2 C0 1.34 0 0.68 0 0 Z " fill="#00225A" transform="translate(704,591)"/>
<path d="M0 0 C2.64 0 5.28 0 8 0 C8 0.66 8 1.32 8 2 C6.35 2 4.7 2 3 2 C2.67 10.25 2.34 18.5 2 27 C1.67 27 1.34 27 1 27 C0.67 18.09 0.34 9.18 0 0 Z " fill="#003569" transform="translate(421,591)"/>
<path d="M0 0 C3.32926829 1.78353659 3.32926829 1.78353659 4.5 4.125 C3.736875 3.815625 2.97375 3.50625 2.1875 3.1875 C-5.08816124 0.31107579 -12.18308368 0.04419313 -19.5 3.125 C-14.92225095 -3.63262955 -6.9411839 -3.36428553 0 0 Z " fill="#CFD7DD" transform="translate(552.5,429.875)"/>
<path d="M0 0 C0.75023437 0.98226563 0.75023437 0.98226563 1.515625 1.984375 C4.85004393 4.68965828 7.66064244 4.45098922 11.75 4.25 C12.44738281 4.23195313 13.14476562 4.21390625 13.86328125 4.1953125 C15.57611539 4.14838554 17.28823824 4.07664605 19 4 C19 4.99 19 5.98 19 7 C16.5821288 7.10826289 14.16912444 7.18739789 11.75 7.25 C10.72712891 7.30027344 10.72712891 7.30027344 9.68359375 7.3515625 C6.21092404 7.41899298 4.34722472 7.25550499 1.515625 5.171875 C0 3 0 3 0 0 Z " fill="#C5D2D8" transform="translate(912,480)"/>
<path d="M0 0 C11.45671784 -0.61132684 11.45671784 -0.61132684 16 3 C16.875 6.6875 16.875 6.6875 17 10 C16.34 10 15.68 10 15 10 C14.67 8.02 14.34 6.04 14 4 C13.07316406 3.87882812 12.14632812 3.75765625 11.19140625 3.6328125 C9.39509766 3.38144531 9.39509766 3.38144531 7.5625 3.125 C6.36753906 2.96257812 5.17257812 2.80015625 3.94140625 2.6328125 C2.97074219 2.42398437 2.00007812 2.21515625 1 2 C0.67 1.34 0.34 0.68 0 0 Z " fill="#ECEFF0" transform="translate(663,428)"/>
<path d="M0 0 C0.33 0 0.66 0 1 0 C1 2.64 1 5.28 1 8 C3.97 8 6.94 8 10 8 C10 9.65 10 11.3 10 13 C9.67 12.34 9.34 11.68 9 11 C6.64400765 10.53248212 6.64400765 10.53248212 3.9375 10.375 C2.308125 10.25125 0.67875 10.1275 -1 10 C-0.67 6.7 -0.34 3.4 0 0 Z " fill="#D1DCE2" transform="translate(719,538)"/>
<path d="M0 0 C0.66 0.33 1.32 0.66 2 1 C0.5023304 3.49824035 -1.01558218 5.86004673 -3 8 C-5.8125 8.4375 -5.8125 8.4375 -8 8 C-8.33 6.68 -8.66 5.36 -9 4 C-7.88625 3.71125 -6.7725 3.4225 -5.625 3.125 C-1.99708908 2.30758671 -1.99708908 2.30758671 0 0 Z " fill="#929AA1" transform="translate(200,538)"/>
<path d="M0 0 C3.63 0 7.26 0 11 0 C11 0.99 11 1.98 11 3 C7.37 3 3.74 3 0 3 C0 2.01 0 1.02 0 0 Z " fill="#88A4B7" transform="translate(545,639)"/>
<path d="M0 0 C3.7024835 1.70114107 4.90182279 2.81041643 6.8125 6.5 C8 10 8 10 8 13 C7.34 13 6.68 13 6 13 C4.99491199 11.21118264 3.99607264 9.41885304 3 7.625 C2.1646875 6.12839844 2.1646875 6.12839844 1.3125 4.6015625 C0 2 0 2 0 0 Z " fill="#ECF2F3" transform="translate(728,451)"/>
<path d="M0 0 C3.96 0 7.92 0 12 0 C11.67 0.99 11.34 1.98 11 3 C9.54257537 3.08096803 8.08387193 3.13917774 6.625 3.1875 C5.81289063 3.22230469 5.00078125 3.25710938 4.1640625 3.29296875 C3.44992187 3.19628906 2.73578125 3.09960938 2 3 C1.34 2.01 0.68 1.02 0 0 Z " fill="#98B1C2" transform="translate(419,639)"/>
<path d="M0 0 C3.63 0 7.26 0 11 0 C10.67 0.99 10.34 1.98 10 3 C7.03 3 4.06 3 1 3 C0.67 2.01 0.34 1.02 0 0 Z " fill="#94ADBE" transform="translate(361,639)"/>
<path d="M0 0 C3.84762566 3.4201117 6.60634022 7.46774256 9 12 C9 12.66 9 13.32 9 14 C8.34 14 7.68 14 7 14 C5.2734375 11.953125 5.2734375 11.953125 3.375 9.25 C2.74335937 8.36828125 2.11171875 7.4865625 1.4609375 6.578125 C0 4 0 4 0 0 Z " fill="#ADC0CC" transform="translate(647,534)"/>
<path d="M0 0 C3.71279784 1.44386582 4.9486443 3.12236392 6.75 6.625 C7.17796875 7.44226563 7.6059375 8.25953125 8.046875 9.1015625 C8.51867187 10.04128906 8.51867187 10.04128906 9 11 C6.34795104 10.63165987 5.26159944 10.3132309 3.515625 8.22265625 C2.88914062 7.15337891 2.88914062 7.15337891 2.25 6.0625 C1.82203125 5.35222656 1.3940625 4.64195312 0.953125 3.91015625 C0 2 0 2 0 0 Z " fill="#EDF2F4" transform="translate(896,454)"/>
<path d="M0 0 C3.3 0 6.6 0 10 0 C10 0.99 10 1.98 10 3 C6.7 3 3.4 3 0 3 C0 2.01 0 1.02 0 0 Z " fill="#96AFC0" transform="translate(388,639)"/>
<path d="M0 0 C1.28163247 3.84489741 0.3963093 5.25201189 -1 9 C-1.37125 10.11375 -1.7425 11.2275 -2.125 12.375 C-2.41375 13.24125 -2.7025 14.1075 -3 15 C-3.99 14.67 -4.98 14.34 -6 14 C-4.50829734 9.0276578 -2.39542583 4.58154261 0 0 Z " fill="#E8EFF2" transform="translate(764,451)"/>
<path d="M0 0 C3 1 3 1 4.9375 3.4375 C6.91391935 5.89305131 8.12464744 6.87039721 11 8 C11 8.66 11 9.32 11 10 C6.65112719 9.49820698 4.0752046 6.93852884 1 4 C0.125 1.6875 0.125 1.6875 0 0 Z " fill="#9AB1C2" transform="translate(444,608)"/>
<path d="M0 0 C4.21073233 1.50383297 5.83237117 4.20664956 8 8 C8 8.99 8 9.98 8 11 C4.50892621 9.83630874 4.14777237 9.11026462 2.3125 6.0625 C1.87550781 5.35222656 1.43851563 4.64195312 0.98828125 3.91015625 C0 2 0 2 0 0 Z " fill="#EDF3F5" transform="translate(888,442)"/>
<path d="M0 0 C-3.2153369 2.84433649 -5.73414068 3.65176659 -10 4 C-12.875 3.5625 -12.875 3.5625 -15 3 C-15 2.67 -15 2.34 -15 2 C-13.06524329 1.46906676 -11.12706845 0.95057683 -9.1875 0.4375 C-8.10855469 0.14746094 -7.02960938 -0.14257812 -5.91796875 -0.44140625 C-3 -1 -3 -1 0 0 Z " fill="#D6E0E6" transform="translate(472,482)"/>
<path d="M0 0 C6.93 0.495 6.93 0.495 14 1 C12 3 12 3 9.1796875 3.1953125 C8.08914063 3.17210937 6.99859375 3.14890625 5.875 3.125 C4.77929688 3.10695313 3.68359375 3.08890625 2.5546875 3.0703125 C1.71164062 3.04710937 0.86859375 3.02390625 0 3 C0 2.01 0 1.02 0 0 Z " fill="#D4DBE0" transform="translate(546,457)"/>
<path d="M0 0 C0.33 0.99 0.66 1.98 1 3 C-1.97 5.475 -1.97 5.475 -5 8 C-5.66 7.67 -6.32 7.34 -7 7 C-2.25 1.125 -2.25 1.125 0 0 Z " fill="#134577" transform="translate(703,517)"/>
<path d="M0 0 C2.475 0.495 2.475 0.495 5 1 C4.01 1.495 4.01 1.495 3 2 C3.680625 3.11375 4.36125 4.2275 5.0625 5.375 C6.22265625 7.2734375 6.22265625 7.2734375 7 9 C6.67 9.66 6.34 10.32 6 11 C4.99126984 9.73608512 3.99328178 8.46359117 3 7.1875 C2.443125 6.47980469 1.88625 5.77210938 1.3125 5.04296875 C0 3 0 3 0 0 Z " fill="#D9E0E3" transform="translate(905,470)"/>
<path d="M0 0 C0.66 0 1.32 0 2 0 C3.65 3.3 5.3 6.6 7 10 C3 9 3 9 1.25 6.125 C0 3 0 3 0 0 Z " fill="#C8D2D7" transform="translate(509,463)"/>
<path d="M0 0 C2.32472205 2.85306797 3.7508258 5.54074837 5 9 C4.01 9.33 3.02 9.66 2 10 C-1.07692308 4.58461538 -1.07692308 4.58461538 -0.6875 1.625 C-0.460625 1.08875 -0.23375 0.5525 0 0 Z " fill="#E7EFF2" transform="translate(677,470)"/>
<path d="M0 0 C0.66 0.66 1.32 1.32 2 2 C1.625 5.625 1.625 5.625 1 9 C-0.65 9.33 -2.3 9.66 -4 10 C-2.68 6.7 -1.36 3.4 0 0 Z " fill="#356189" transform="translate(438,528)"/>
<path d="M0 0 C-0.33 0.99 -0.66 1.98 -1 3 C-4.3 3.33 -7.6 3.66 -11 4 C-10.67 3.01 -10.34 2.02 -10 1 C-2.25 0 -2.25 0 0 0 Z " fill="#1C4475" transform="translate(739,526)"/>
<path d="M0 0 C0.66 0.66 1.32 1.32 2 2 C1.60495559 4.9628331 0.40182371 7.38326241 -1 10 C-1.66 9.67 -2.32 9.34 -3 9 C-2.01 6.03 -1.02 3.06 0 0 Z " fill="#23527F" transform="translate(476,519)"/>
<path d="M0 0 C3.67230705 3.07999946 4.56802365 5.2482602 5 10 C2.61327331 7.03716687 0.2646629 4.05729491 -2 1 C-1.34 0.67 -0.68 0.34 0 0 Z " fill="#F0F5F4" transform="translate(395,429)"/>
<path d="M0 0 C0.66 0 1.32 0 2 0 C6 6.75 6 6.75 6 9 C3.5067466 8.00269864 2.22532561 7.34925469 0.75 5.0625 C0 3 0 3 0 0 Z " fill="#D1D9DD" transform="translate(736,469)"/>
<path d="M0 0 C0 0.33 0 0.66 0 1 C-2.66666667 1.66666667 -5.33333333 2.33333333 -8 3 C-8.74765625 3.18691406 -9.4953125 3.37382812 -10.265625 3.56640625 C-10.83796875 3.70949219 -11.4103125 3.85257812 -12 4 C-8.4913862 -1.17938228 -5.96187138 -1.19237428 0 0 Z " fill="#DCE2E6" transform="translate(545,429)"/>
<path d="M0 0 C0.66 0 1.32 0 2 0 C1.05066101 3.35433109 0.10251165 6.69246505 -1 10 C-1.66 10 -2.32 10 -3 10 C-2.01 6.7 -1.02 3.4 0 0 Z " fill="#174072" transform="translate(815,429)"/>
<path d="M0 0 C6.52307692 -0.36923077 6.52307692 -0.36923077 8.9375 1.5 C9.288125 1.995 9.63875 2.49 10 3 C9.67 3.66 9.34 4.32 9 5 C4.545 3.02 4.545 3.02 0 1 C0 0.67 0 0.34 0 0 Z " fill="#B6C4D2" transform="translate(462,620)"/>
<path d="M0 0 C0.66 0 1.32 0 2 0 C2.66 2.64 3.32 5.28 4 8 C2.35 7.01 0.7 6.02 -1 5 C-0.67 3.35 -0.34 1.7 0 0 Z " fill="#E0EAEF" transform="translate(828,430)"/>
<path d="M0 0 C2.97 0.495 2.97 0.495 6 1 C5.67 1.99 5.34 2.98 5 4 C3.35 4 1.7 4 0 4 C0 2.66666667 0 1.33333333 0 0 Z " fill="#F1F5F7" transform="translate(548,425)"/>
</svg>
